<?xml version="1.0" encoding="UTF-8" standalone="no"?>
<svg
   xmlns:dc="http://purl.org/dc/elements/1.1/"
   xmlns:cc="http://creativecommons.org/ns#"
   xmlns:rdf="http://www.w3.org/1999/02/22-rdf-syntax-ns#"
   xmlns:svg="http://www.w3.org/2000/svg"
   xmlns="http://www.w3.org/2000/svg"
   viewBox="0 0 744.98669 99.764801"
   height="99.764801"
   width="744.98669"
   xml:space="preserve"
   id="svg2"
   version="1.1"><metadata
     id="metadata8"><rdf:RDF><cc:Work
         rdf:about=""><dc:format>image/svg+xml</dc:format><dc:type
           rdf:resource="http://purl.org/dc/dcmitype/StillImage" /></cc:Work></rdf:RDF></metadata><defs
     id="defs6"><clipPath
       id="clipPath22"
       clipPathUnits="userSpaceOnUse"><path
         id="path20"
         d="M 0,74.824 H 558.74 V 0 H 0 Z" /></clipPath></defs><g
     transform="matrix(1.3333333,0,0,-1.3333333,0,99.7648)"
     id="g10"><g
       transform="translate(279.359,12.5975)"
       id="g12"><path
         id="path14"
         style="fill:none;stroke:#231f20;stroke-width:4;stroke-linecap:round;stroke-linejoin:miter;stroke-miterlimit:10;stroke-dasharray:none;stroke-opacity:1"
         d="M 0,0 19.799,19.799 0,39.598 -19.777,19.799 0.022,0" /></g><g
       id="g16"><g
         clip-path="url(#clipPath22)"
         id="g18"><g
           transform="translate(279.359,32.3965)"
           id="g24"><path
             id="path26"
             style="fill:none;stroke:#231f20;stroke-width:4;stroke-linecap:round;stroke-linejoin:miter;stroke-miterlimit:10;stroke-dasharray:none;stroke-opacity:1"
             d="M 0,0 19.799,19.799 0,39.598 -19.777,19.799 Z" /></g><g
           transform="translate(218.1173,33.9103)"
           id="g28"><path
             id="path30"
             style="fill:#231f20;fill-opacity:1;fill-rule:nonzero;stroke:none"
             d="m 0,0 c 0,0 -3.393,-0.015 -9.33,-0.041 -5.937,-0.013 -14.418,-0.033 -24.596,-0.056 -10.178,0.018 -22.052,0.039 -34.774,0.061 -12.723,0.068 -26.293,0.141 -39.864,0.213 -27.14,0.177 -54.281,0.353 -74.637,0.485 C -203.557,0.865 -217.127,1 -217.127,1 c -0.552,0.005 -0.996,0.458 -0.99,1.01 0.005,0.545 0.447,0.984 0.99,0.99 0,0 13.57,0.135 33.926,0.338 20.356,0.132 47.497,0.308 74.637,0.485 13.571,0.072 27.141,0.145 39.864,0.213 12.722,0.022 24.596,0.043 34.774,0.061 C -23.748,4.074 -15.267,4.054 -9.33,4.041 -3.393,4.015 0,4 0,4 1.105,3.995 1.996,3.096 1.991,1.991 1.986,0.893 1.096,0.005 0,0" /></g><g
           transform="translate(340.6228,35.9103)"
           id="g32"><path
             id="path34"
             style="fill:none;stroke:#231f20;stroke-width:4;stroke-linecap:round;stroke-linejoin:miter;stroke-miterlimit:10;stroke-dasharray:none;stroke-opacity:1"
             d="m 0,0 -12.451,-12.451 -24.411,24.41 4.76,4.76 10.334,-10.333 -10.334,-10.334 -29.173,29.173 -29.129,-29.173 -10.334,10.334 10.334,10.333 4.76,-4.76 -24.41,-24.41 L -122.506,0" /></g><g
           transform="translate(557.7501,34.9103)"
           id="g36"><path
             id="path38"
             style="fill:#231f20;fill-opacity:1;fill-rule:nonzero;stroke:none"
             d="m 0,0 c 0,0 -13.57,-0.135 -33.926,-0.338 -20.356,-0.132 -47.497,-0.308 -74.638,-0.485 -13.57,-0.072 -27.141,-0.145 -39.863,-0.213 -12.722,-0.022 -24.596,-0.043 -34.774,-0.061 -10.178,0.023 -18.659,0.043 -24.597,0.056 -5.937,0.026 -9.329,0.041 -9.329,0.041 -1.105,0.005 -1.996,0.904 -1.991,2.009 0.004,1.098 0.895,1.986 1.991,1.991 0,0 3.392,0.015 9.329,0.041 5.938,0.013 14.419,0.033 24.597,0.056 10.178,-0.018 22.052,-0.039 34.774,-0.061 12.722,-0.068 26.293,-0.141 39.863,-0.213 C -81.423,2.646 -54.282,2.47 -33.926,2.338 -13.57,2.135 0,2 0,2 0.552,1.995 0.995,1.542 0.99,0.99 0.985,0.445 0.543,0.006 0,0" /></g><g
           transform="translate(279.3701,25.7659)"
           id="g40"><path
             id="path42"
             style="fill:none;stroke:#231f20;stroke-width:4;stroke-linecap:round;stroke-linejoin:miter;stroke-miterlimit:10;stroke-dasharray:none;stroke-opacity:1"
             d="M 0,0 11.469,-11.469 0,-22.937 -11.469,-11.469 Z" /></g><g
           transform="translate(349.7349,24.9962)"
           id="g44"><path
             id="path46"
             style="fill:none;stroke:#231f20;stroke-width:4;stroke-linecap:round;stroke-linejoin:miter;stroke-miterlimit:10;stroke-dasharray:none;stroke-opacity:1"
             d="M 0,0 H -9.489 L -21.476,11.987 -42.839,-9.376 -70.365,18.15 -97.891,-9.376 -119.254,11.987 -131.241,0 h -9.489" /></g></g></g></g></svg>