<?xml version="1.0" encoding="UTF-8" standalone="no"?>
<svg
   xmlns:dc="http://purl.org/dc/elements/1.1/"
   xmlns:cc="http://creativecommons.org/ns#"
   xmlns:rdf="http://www.w3.org/1999/02/22-rdf-syntax-ns#"
   xmlns:svg="http://www.w3.org/2000/svg"
   xmlns="http://www.w3.org/2000/svg"
   viewBox="0 0 283.48401 194.51466"
   height="194.51466"
   width="283.48401"
   xml:space="preserve"
   id="svg2"
   version="1.1"><metadata
     id="metadata8"><rdf:RDF><cc:Work
         rdf:about=""><dc:format>image/svg+xml</dc:format><dc:type
           rdf:resource="http://purl.org/dc/dcmitype/StillImage" /></cc:Work></rdf:RDF></metadata><defs
     id="defs6"><clipPath
       id="clipPath18"
       clipPathUnits="userSpaceOnUse"><path
         id="path16"
         d="M 0,145.886 H 212.613 V 0 H 0 Z" /></clipPath></defs><g
     transform="matrix(1.3333333,0,0,-1.3333333,0,194.51467)"
     id="g10"><g
       id="g12"><g
         clip-path="url(#clipPath18)"
         id="g14"><g
           transform="translate(2.8978,48.6583)"
           id="g20"><path
             id="path22"
             style="fill:#231f20;fill-opacity:1;fill-rule:nonzero;stroke:none"
             d="m 0,0 c 1.719,8.248 6.056,16.076 9.923,23.494 4.251,8.154 9.116,15.978 14.365,23.524 C 34.5,61.696 46.859,76.89 61.768,87.002 60.802,86.743 59.836,86.484 58.87,86.226 60.065,81.597 58.147,77.158 56.713,72.779 55.055,67.717 53.136,62.742 51.13,57.808 47.332,48.47 42.954,39.373 38.484,30.342 29.257,11.698 19.418,-6.655 11.861,-26.07 c 0.207,0.534 2.676,0.208 2.897,0.776 7.34,18.855 16.803,36.74 25.83,54.816 4.506,9.022 8.842,18.127 12.76,27.422 2.069,4.91 3.95,9.895 5.695,14.928 1.656,4.774 4.036,10.05 2.725,15.13 C 61.776,86.969 59.114,86.391 58.87,86.226 44.35,76.377 32.55,61.775 22.386,47.649 17.016,40.184 12.213,32.322 7.835,24.24 3.608,16.439 -1.075,7.968 -2.898,-0.776 -2.81,-0.356 -0.096,-0.461 0,0" /></g><g
           transform="translate(8.8811,47.0473)"
           id="g24"><path
             id="path26"
             style="fill:#231f20;fill-opacity:1;fill-rule:nonzero;stroke:none"
             d="m 0,0 c -1.819,-0.296 -2.904,-0.338 -0.646,1.356 1.997,1.498 4.007,2.979 6.019,4.458 3.52,2.588 7.073,5.132 10.637,7.659 7.639,5.414 15.396,10.66 23.228,15.789 C 38.45,28.746 37.14,29.01 36.34,28.486 29.029,23.697 21.797,18.794 14.643,13.775 11.066,11.266 7.52,8.713 3.987,6.143 1.968,4.674 -0.039,3.188 -2.043,1.7 -3.473,0.638 -6.738,-1.401 -2.898,-0.776 -1.914,-0.617 -0.979,-0.159 0,0" /></g><g
           transform="translate(38.1654,59.2714)"
           id="g28"><path
             id="path30"
             style="fill:#231f20;fill-opacity:1;fill-rule:nonzero;stroke:none"
             d="M 0,0 C 0.977,1.429 1.954,2.859 2.931,4.288 1.966,4.029 1,3.771 0.034,3.512 c -2.99,-4.606 -5.146,-9.462 -6.556,-14.769 0.107,0.402 2.502,0.436 2.898,0.776 C 2.598,-5.143 6.695,2.163 13.161,7.247 12.195,6.988 11.229,6.729 10.263,6.471 8.967,2.957 7.799,-0.586 6.753,-4.182 c 0.121,0.414 2.488,0.434 2.898,0.776 2.148,1.793 3.968,3.716 5.639,5.959 -0.966,-0.258 -1.932,-0.517 -2.898,-0.776 -0.243,-1.613 -0.238,-2.898 0.015,-4.509 -0.022,0.142 2.687,0.526 2.898,0.776 2.244,2.655 4.487,5.311 6.731,7.966 C 21.07,5.751 20.104,5.492 19.138,5.234 18.785,3.562 18.837,2.586 19.366,0.962 19.367,0.958 22.02,1.584 22.263,1.738 24.646,3.251 26.222,5.045 27.415,7.604 27.188,7.117 25.02,7.184 24.517,6.827 22.875,5.662 15.915,-2.31 21.381,-0.879 24.854,0.03 27.563,1.826 30.057,4.486 29.091,4.227 28.125,3.968 27.159,3.709 26.23,1.978 24.627,-1.158 28.04,-0.375 c 0.599,0.137 1.192,0.307 1.785,0.467 4.717,1.278 8.777,6.098 12.48,9.115 C 41.339,8.949 40.373,8.69 39.408,8.431 39.183,7.899 38.958,7.367 38.733,6.836 c 0.232,0.549 2.651,0.194 2.898,0.776 0.224,0.532 0.449,1.064 0.674,1.595 -0.208,-0.491 -2.42,-0.387 -2.897,-0.776 -3.59,-2.925 -7.226,-6.82 -11.421,-8.816 0.966,0.259 1.932,0.517 2.898,0.776 -3.3,-0.448 -1.847,2.197 -0.828,4.095 C 29.741,3.898 27.655,4.238 27.159,3.709 25.226,1.648 23.207,0.166 20.66,-1.059 c 0.949,0.256 1.897,0.511 2.845,0.767 -4.061,-0.948 2.79,7.102 3.91,7.896 C 26.449,7.345 25.483,7.086 24.517,6.827 23.324,4.269 21.749,2.474 19.366,0.962 20.332,1.22 21.298,1.479 22.263,1.738 21.735,3.363 21.683,4.339 22.036,6.01 21.948,5.593 19.478,5.636 19.138,5.234 16.895,2.578 14.651,-0.077 12.407,-2.732 c 0.966,0.258 1.932,0.517 2.898,0.776 C 15.051,-0.345 15.047,0.941 15.29,2.553 15.232,2.167 12.689,2.175 12.392,1.777 10.721,-0.467 8.901,-2.39 6.753,-4.182 c 0.966,0.259 1.932,0.517 2.898,0.776 1.046,3.596 2.214,7.139 3.51,10.653 C 12.994,6.794 10.715,6.825 10.263,6.471 3.797,1.387 -0.3,-5.919 -6.522,-11.257 c 0.966,0.258 1.932,0.517 2.898,0.776 1.41,5.307 3.566,10.163 6.555,14.769 C 2.533,3.674 0.465,4.143 0.034,3.512 -0.943,2.082 -1.921,0.653 -2.898,-0.776 -2.478,-0.163 -0.436,-0.638 0,0" /></g><g
           transform="translate(119.0034,111.7932)"
           id="g32"><path
             id="path34"
             style="fill:#231f20;fill-opacity:1;fill-rule:nonzero;stroke:none"
             d="M 0,0 C 7.337,10.073 14.034,20.557 20.088,31.45 L 17.19,30.674 c -8.612,-42.533 -39.286,-76.226 -49.822,-118.098 0.114,0.452 2.774,0.285 2.898,0.776 10.535,41.873 41.209,75.566 49.822,118.098 C 19.996,30.999 17.453,31.147 17.19,30.674 11.136,19.781 4.439,9.297 -2.898,-0.776 -2.448,-0.16 -0.466,-0.64 0,0" /></g><g
           transform="translate(103.5294,76.4213)"
           id="g36"><path
             id="path38"
             style="fill:#231f20;fill-opacity:1;fill-rule:nonzero;stroke:none"
             d="m 0,0 c 3.365,9.322 10.321,17.067 16.22,24.875 5.187,6.868 10.822,16.879 19.1,20.39 -0.966,-0.259 -1.932,-0.518 -2.898,-0.777 5.87,0.458 0.094,-12.85 -1.031,-15.564 C 28.698,22.43 24.976,16.28 21.348,10.277 14.523,-1.017 6.845,-13.169 -4.267,-20.681 c 0.966,0.259 1.932,0.518 2.898,0.777 -0.407,3.796 5.474,8.593 7.809,11.249 3.538,4.025 7.32,7.83 11.212,11.511 C 16.686,2.597 15.72,2.339 14.754,2.08 c -1.35,-4.062 -2.271,-8.136 -2.801,-12.383 0.043,0.342 2.587,0.431 2.898,0.777 C 20.211,-3.557 24.854,2.887 28.82,9.861 28.477,9.257 26.415,9.644 25.922,9.084 22.936,5.689 21.378,1.99 21.035,-2.519 c 0.016,0.21 2.574,0.587 2.898,0.777 4.31,2.515 7.098,6.136 8.43,10.946 -0.116,-0.417 -2.499,-0.42 -2.898,-0.777 -1.66,-1.481 -9.067,-9.654 -2.78,-7.988 4.122,1.093 7.044,3.647 9.224,7.352 L 33.012,7.015 c -1.409,-2.962 -1.797,-5.676 -1.273,-8.913 -0.011,0.07 2.633,0.618 2.898,0.776 2.788,1.661 4.232,3.943 4.54,7.174 C 39.149,5.759 36.594,5.57 36.279,5.275 34.655,3.754 34.109,2.493 34.112,0.267 c 0,0.277 2.671,0.438 2.898,0.776 C 49.493,19.707 60.729,39.144 70.672,59.276 70.405,58.736 68.281,58.941 67.774,58.5 60.828,52.462 57.154,43.328 53.211,35.217 48.75,26.039 44.344,16.662 41.57,6.817 40.787,4.036 36.834,-9.239 42.77,-7.648 48.417,-6.135 51.477,0.704 53.099,5.85 L 50.201,5.073 c -0.725,-3.224 -2.267,-7.298 2.51,-6.032 2.926,0.776 7.015,3.516 5.132,6.903 -0.042,0.075 -2.671,-0.614 -2.898,-0.776 -2.909,-2.085 -7.114,-9.311 -0.877,-7.64 5.266,1.411 9.984,6.818 13.906,10.393 L 65.076,7.144 c -5.524,-14.58 -11.058,-29.155 -16.849,-43.632 -2.829,-7.073 -5.72,-14.125 -8.76,-21.112 -1.471,-3.38 -3.033,-6.717 -4.655,-10.027 -0.821,-1.676 -3.041,-8.069 -4.889,-8.608 0.9,0.239 1.801,0.477 2.702,0.716 0.037,0.143 0.074,0.286 0.111,0.429 -0.676,-0.208 -1.932,-0.475 -2.796,-0.741 -0.089,-0.027 -0.178,-0.054 -0.266,-0.082 -0.017,-0.005 -0.034,-0.011 -0.051,-0.017 0.035,-0.122 0.069,-0.244 0.104,-0.365 0.009,-0.033 2.469,0.648 2.702,0.716 1.552,0.453 2.031,2.515 2.745,3.82 1.768,3.232 3.362,6.558 4.922,9.893 3.458,7.392 6.506,14.981 9.573,22.54 6.351,15.65 12.321,31.453 18.305,47.247 -0.185,-0.488 -2.45,-0.369 -2.898,-0.777 -3.873,-3.529 -7.919,-7.337 -12.461,-9.989 0.966,0.258 1.932,0.517 2.898,0.776 -5.302,-0.182 0.666,6.82 2.33,8.013 L 54.945,5.168 C 56.461,2.441 53.82,0.162 51.644,-1.23 c 0.948,0.256 1.897,0.511 2.845,0.767 C 50.241,-1.298 52.696,4.062 53.099,5.85 52.996,5.393 50.357,5.568 50.201,5.073 48.906,0.966 45.936,-6.493 41.368,-8.004 c 0.949,0.253 1.898,0.506 2.847,0.758 -3.94,1.31 -0.454,12.053 0.253,14.839 1.592,6.273 4.26,12.264 6.879,18.159 2.802,6.308 5.821,12.518 8.96,18.665 2.792,5.467 5.674,10.781 10.365,14.859 L 67.774,58.5 C 57.831,38.367 46.596,18.93 34.112,0.267 l 2.898,0.776 c -0.003,2.226 0.542,3.487 2.167,5.009 L 36.279,5.275 c -0.308,-3.23 -1.752,-5.512 -4.54,-7.173 0.966,0.258 1.932,0.517 2.898,0.776 C 34.113,2.116 34.5,4.83 35.909,7.791 35.631,7.206 33.363,7.612 33.012,7.015 31.259,4.037 28.925,1.417 25.617,0.168 l 2.898,0.777 c -4.882,-0.18 2.693,7.228 3.848,8.259 L 29.465,8.427 c -1.331,-4.809 -4.12,-8.43 -8.43,-10.946 l 2.898,0.777 C 24.276,2.767 25.834,6.465 28.82,9.861 27.854,9.602 26.888,9.343 25.922,9.084 21.957,2.111 17.313,-4.334 11.953,-10.303 l 2.898,0.777 C 15.38,-5.28 16.302,-1.205 17.652,2.856 17.497,2.391 15.175,2.478 14.754,2.08 10.857,-1.607 7.125,-5.439 3.542,-9.432 c -2.347,-2.616 -8.213,-7.481 -7.809,-11.249 -0.012,0.114 2.628,0.595 2.898,0.777 10.705,7.237 17.937,18.668 24.68,29.438 3.751,5.991 7.249,12.184 10.269,18.576 1.529,3.237 7.041,14.762 3.019,17.254 C 35.897,45.799 33.321,44.75 32.618,44.548 27.926,43.205 24.211,38.147 21.319,34.521 16.579,28.58 12.067,22.449 7.506,16.37 3.452,10.965 -0.582,5.638 -2.898,-0.776 -2.71,-0.257 -0.2,-0.555 0,0" /></g><g
           transform="translate(45.5016,16.5623)"
           id="g40"><path
             id="path42"
             style="fill:#231f20;fill-opacity:1;fill-rule:nonzero;stroke:none"
             d="m 0,0 c 24.61,9.689 49.115,19.599 74.486,27.161 28.252,8.421 57.526,13.676 86.83,16.694 1.97,0.203 3.839,1.352 5.795,1.553 C 138.234,42.434 109.828,36.893 81.813,29.336 51.811,21.242 23.076,9.814 -5.796,-1.553 -3.952,-0.827 -1.853,-0.729 0,0" /></g><g
           transform="translate(172.1815,94.5181)"
           id="g44"><path
             id="path46"
             style="fill:#231f20;fill-opacity:1;fill-rule:nonzero;stroke:none"
             d="M 0,0 C 0.648,0.007 1.316,0.271 1.933,0.436 2.602,0.615 3.377,0.719 3.938,1.153 4.799,1.819 4.785,3.109 3.892,3.708 3.518,3.959 3.035,4.001 2.602,3.939 1.722,3.813 0.836,3.492 -0.018,3.254 -0.542,3.107 -0.952,2.967 -1.286,2.513 -1.66,2.005 -1.674,1.271 -1.703,0.67 -1.7,0.724 -0.339,1.02 -0.25,1.044 -0.152,1.07 1.191,1.357 1.195,1.446 1.23,2.158 1.289,2.851 1.724,3.442 1.812,3.561 1.936,3.648 2.056,3.732 3.021,4.403 -1.187,3.121 -0.001,3.193 0.299,3.211 0.595,3.122 0.865,3.002 2.265,2.383 1.673,0.509 0.481,0.062 1.38,0.306 2.279,0.549 3.179,0.793 3.127,0.78 3.075,0.767 3.023,0.754 3.089,0.769 3.156,0.784 3.223,0.799 3.115,0.779 3.007,0.771 2.898,0.776 2.439,0.772 1.883,0.52 1.445,0.403 1.022,0.289 0.441,0.005 0,0" /></g></g></g></g></svg>